<?xml version="1.0" encoding="UTF-8" standalone="no"?>
<svg xmlns:dc="http://purl.org/dc/elements/1.1/" xmlns:cc="http://creativecommons.org/ns#" xmlns:rdf="http://www.w3.org/1999/02/22-rdf-syntax-ns#" xmlns:svg="http://www.w3.org/2000/svg" xmlns="http://www.w3.org/2000/svg" viewBox="0 0 927.58667 358.56" height="358.56" width="927.58667" xml:space="preserve" version="1.1" id="svg2"><metadata id="metadata8"><rdf:RDF><cc:Work rdf:about=""><dc:format>image/svg+xml</dc:format><dc:type rdf:resource="http://purl.org/dc/dcmitype/StillImage"/></cc:Work></rdf:RDF></metadata><defs id="defs6"><clipPath id="clipPath18" clipPathUnits="userSpaceOnUse"><path id="path20" d="m 0,0 6956.94,0 0,2689 L 0,2689 0,0 Z"/></clipPath></defs><g transform="matrix(1.3333333,0,0,-1.3333333,0,358.56)" id="g10"><g transform="scale(0.1)" id="g12"><g id="g14"><g clip-path="url(#clipPath18)" id="g16"><path id="path22" style="fill:#ffffff;fill-opacity:1;fill-rule:nonzero;stroke:none" d="M 2606.9,955.328 C 2095.61,1664.1 2594.3,2689.21 2594.3,2689.21 l -2490.362,0 c 0,0 510.304,-1025.11 -18.9341,-1733.882 C -298.125,442.129 701.086,134.73 1345.95,0.0195312 1994.86,134.73 2981.12,436.359 2606.9,955.328"/><path id="path24" style="fill:#c4161d;fill-opacity:1;fill-rule:nonzero;stroke:none" d="M 2606.92,955.309 C 2095.6,1664.08 2594.32,2689.2 2594.32,2689.2 l -2490.375,0 c 0,0 510.285,-1025.12 -18.9606,-1733.891 C -298.109,442.129 701.078,134.699 1345.97,0 1994.85,134.699 2981.12,436.379 2606.92,955.309 M 1345.97,35.9609 C 732.996,336.371 -297.336,543.27 147.426,970.77 c 709.715,682.06 0,1682.48 0,1682.48 0,0 661.453,-40.3 1198.364,-40.3 536.84,0 1198.73,40.3 1198.73,40.3 0,0 -709.78,-1000.42 0,-1682.48 C 2989.11,543.27 1962.73,336.371 1345.97,35.9609"/><path id="path26" style="fill:#231f20;fill-opacity:1;fill-rule:nonzero;stroke:none" d="m 1833.61,1129.48 -978.012,0 0,263.21 c -63.293,95.72 -96.793,207.19 -96.793,322.39 0,115.28 33.5,226.78 96.793,322.58 l 0,69.52 53.89,0 c 110.982,123.04 269.432,193.57 435.092,193.57 165.73,0 324.16,-70.53 435.13,-193.57 l 53.9,0 0,-69.52 c 63.29,-95.8 96.81,-207.3 96.81,-322.58 0,-115.22 -33.52,-226.67 -96.81,-322.37 l 0,-263.23 z m -370.08,12.15 357.97,0 0,233.47 c -86.66,-121.36 -214.69,-203.84 -357.97,-233.47 m -595.788,254.76 c 106.871,-159.56 285.038,-254.76 476.838,-254.76 191.83,0 370,95.2 476.92,254.76 l 0,637.58 c -14.3,21.3 -30.17,41.82 -47.21,61.08 l -859.384,0 c -17.019,-19.26 -32.91,-39.78 -47.164,-61.08 l 0,-637.58 z m 0,-254.76 357.988,0 c -143.31,29.63 -271.335,112.11 -357.988,233.47 l 0,-233.47 z m -12.144,873.48 c -55.461,-90.16 -84.641,-193.43 -84.641,-300.03 0,-106.53 29.18,-209.78 84.641,-299.84 l 0,599.87 z m 978.012,0 0,-599.87 c 55.44,90.06 84.66,193.31 84.66,299.84 0,106.6 -29.22,209.87 -84.66,300.03 m -43.24,79.94 c 10.91,-12.8 21.35,-26.14 31.13,-39.8 l 0,39.8 -31.13,0 z m -922.628,0 0,-39.78 c 9.754,13.64 20.203,26.98 31.098,39.78 l -31.098,0 z m 58.196,12.13 837.352,0 C 1655,2222.62 1503.2,2288.6 1344.58,2288.6 c -158.55,0 -310.36,-65.98 -418.642,-181.42"/><path id="path28" style="fill:#231f20;fill-opacity:1;fill-rule:nonzero;stroke:none" d="m 1060.36,1206.19 -9.9,6.29 131.24,405.18 -324.72,303.62 4.114,10.55 422.426,0 53.97,166.62 11.5,-0.03 53.16,-166.59 425.61,0 4.16,-10.55 -329.12,-305.04 128.84,-403.79 -9.96,-6.26 -279.34,261.35 -281.98,-261.35 z m 131.15,402.29 -122.34,-377.6 264.25,244.95 -141.91,132.65 z M 1351.2,1475.8 1613.01,1230.9 1492.98,1607.16 1351.2,1475.8 Z m -155.56,145.43 146.7,-137.15 146.59,135.83 -95.6,299.77 -101.01,0 -96.68,-298.45 z m 210.39,298.45 92.7,-290.67 313.61,290.67 -406.31,0 z m -529.553,0 309.373,-289.32 93.71,289.32 -403.083,0 z m 419.773,12.15 93.16,0 -46.21,144.91 -46.95,-144.91"/><path id="path30" style="fill:#231f20;fill-opacity:1;fill-rule:nonzero;stroke:none" d="m 934.062,2195.18 39.633,29.25 c 8.371,6.18 10.387,19.59 4.211,28.24 l -8.551,11.9 c -6.812,9.52 -20.468,11.54 -30.093,4.45 l -18.457,-13.61 c -3.871,-2.82 -8.778,-2.42 -11.258,1.08 l -3.942,5.45 c -2.269,3.23 -1.652,7.32 1.375,9.57 l 2.461,1.84 35.25,25.96 -9,12.56 -38.843,-28.6 c -10.293,-7.65 -11.793,-18.75 -4.067,-29.48 l 6.805,-9.49 c 3.18,-4.53 9.16,-7.84 14.609,-7.87 4.942,-0.13 9.52,1.69 15.321,5.96 l 16.777,12.39 c 5.102,3.77 8.852,3.12 12.414,-1.74 l 4.168,-5.84 c 3.34,-4.64 3.359,-9.08 0.309,-11.31 l -3.149,-2.35 -35,-25.81 9.027,-12.55"/><path id="path32" style="fill:#231f20;fill-opacity:1;fill-rule:nonzero;stroke:none" d="m 957.055,2326.03 7.422,-13.62 45.563,25.64 c 5.64,3.21 9.04,2.75 11.16,-1.21 l 2.9,-5.29 -33.217,-18.71 c -13.195,-7.47 -15.399,-20.52 -6.508,-36.83 l 5.371,-9.78 c 6.231,-11.54 21.794,-16.43 32.474,-10.39 l 26.96,15.16 c 10.24,5.77 14.3,20.89 8.25,31.93 l -22.93,41.95 c -2.83,5.17 -8.29,9.16 -13.77,11.01 -5.56,1.63 -8.44,1.2 -16.02,-3.03 l -47.655,-26.83 z m 52.985,-57.48 c -1.08,0.17 -2.54,0.72 -3.89,1.74 -1.41,1.17 -2.28,2.09 -2.85,3.15 l -7.187,13.14 c -2.961,5.46 -0.707,11.25 5.867,14.94 l 18.62,10.48 c 6.68,3.79 12.75,2.61 15.7,-2.81 l 7.2,-13.14 c 0.53,-1.07 0.87,-2.28 0.94,-4.23 0.12,-1.66 0.06,-2.94 -0.46,-4.18 -0.7,-1.57 -2.81,-3.36 -7.15,-5.84 l -18.16,-10.18 c -4.48,-2.49 -6.81,-3.19 -8.63,-3.07"/><path id="path34" style="fill:#231f20;fill-opacity:1;fill-rule:nonzero;stroke:none" d="m 1095.89,2260.84 14.28,5.55 -10.76,28.39 35.48,13.79 c 12.5,4.91 18.14,18.95 12.91,32.82 l -15.78,41.74 c -5.09,13.37 -16.32,18.05 -30.62,12.5 l -27,-10.54 c -14.12,-5.5 -19.19,-16.73 -13.82,-30.9 l 35.31,-93.35 z m -5.69,58.43 -14.9,39.36 c -2.15,5.64 0.13,10.23 6.83,12.82 l 25.55,9.97 c 5.07,1.99 8.46,0.34 10.58,-5.3 l 15.6,-41.28 c 1.96,-5.19 -0.05,-10.03 -4.81,-11.87 l -27.14,-10.58 c -4.6,-1.81 -9.62,1.25 -11.71,6.88"/><path id="path36" style="fill:#231f20;fill-opacity:1;fill-rule:nonzero;stroke:none" d="m 1249.71,2337.37 -3.18,15.18 -49.42,-10.63 c -4.52,-1 -7.39,-0.54 -9.02,1.42 -0.92,1.02 -1.51,2.33 -2.19,3.76 -0.79,2.12 -1.25,3.44 -1.31,3.8 l -0.67,3 52.99,40.42 -2.22,10.79 c -3.18,14.87 -13.77,21.57 -28.76,18.35 l -22.31,-4.83 c -18.61,-3.98 -25.83,-14.53 -22.1,-32.3 l 8.54,-40.89 c 3.07,-14.52 14.73,-22.09 29.56,-18.91 l 50.09,10.84 z m -73.14,51.85 c -1.7,8.11 0.44,12.11 7.59,13.64 l 24.48,5.3 c 6.94,1.47 9.57,-0.05 10.76,-5.79 l 0.29,-1.55 -39.26,-30.03 -3.86,18.43"/><path id="path38" style="fill:#231f20;fill-opacity:1;fill-rule:nonzero;stroke:none" d="m 1262.94,2338.19 15.21,1.89 -8.22,67.91 c -0.7,5.83 1.76,9.62 7.33,10.3 l 7.45,0.91 -1.88,15.62 -8.61,-1.06 c -6.78,-0.86 -13.58,-4.47 -16.68,-8.38 -2.78,-3.95 -3.86,-10.7 -2.87,-18.96 l 8.27,-68.23"/><path id="path40" style="fill:#231f20;fill-opacity:1;fill-rule:nonzero;stroke:none" d="m 1378.45,2344.1 -0.33,15.51 -50.49,-0.86 c -4.58,-0.09 -7.35,0.86 -8.59,3.13 -0.72,1.19 -1.03,2.55 -1.42,4.1 -0.37,2.25 -0.57,3.66 -0.57,3.98 l -0.05,3.09 59.56,29.4 -0.15,11.04 c -0.29,15.21 -9.45,23.85 -24.77,23.62 l -22.79,-0.43 c -19.06,-0.34 -28.09,-9.32 -27.79,-27.47 l 0.76,-41.75 c 0.2,-14.87 10.22,-24.52 25.4,-24.26 l 51.23,0.9 z m -62.1,65.06 c -0.13,8.29 2.74,11.81 10.04,11.91 l 24.98,0.47 c 7.18,0.11 9.44,-1.95 9.52,-7.81 l 0.03,-1.52 -44.22,-21.87 -0.35,18.82"/><path id="path42" style="fill:#231f20;fill-opacity:1;fill-rule:nonzero;stroke:none" d="m 1456.29,2429.41 -3.17,-15.2 50.95,-10.94 c 6.34,-1.42 8.56,-3.99 7.62,-8.41 l -1.24,-5.88 -37.13,8 c -14.78,3.2 -24.92,-5.24 -28.74,-23.48 l -2.3,-10.95 c -2.69,-12.91 5.86,-26.91 17.84,-29.48 l 30.16,-6.51 c 11.5,-2.49 24.27,6.23 26.84,18.59 l 9.83,46.97 c 1.19,5.72 -0.31,12.42 -3.27,17.45 -3.16,4.95 -5.61,6.52 -14.12,8.39 l -53.27,11.45 z m 2.83,-78.64 c -0.62,0.87 -1.44,2.25 -1.73,3.93 -0.33,1.8 -0.45,3.05 -0.16,4.28 l 3.08,14.7 c 1.25,6.03 6.72,8.93 14.04,7.34 l 20.85,-4.45 c 7.48,-1.62 11.32,-6.55 10.05,-12.61 l -3.1,-14.73 c -0.24,-1.15 -0.83,-2.3 -1.99,-3.77 -1,-1.37 -1.88,-2.26 -3.08,-2.89 -1.5,-0.75 -4.3,-0.66 -9.13,0.39 l -20.29,4.38 c -5.02,1.1 -7.23,2.09 -8.54,3.43"/><path id="path44" style="fill:#231f20;fill-opacity:1;fill-rule:nonzero;stroke:none" d="m 1630.37,2379.95 -14.32,5.01 -21.66,-63.85 c -2.37,-7.03 -5.96,-8.55 -13.19,-6 l -23.18,8.1 c -3.87,1.36 -5.89,2.78 -7.11,5.06 -0.77,1.37 -0.89,2.63 -0.7,3.73 0,0.52 0.44,1.8 1.23,4.11 l 21.69,63.87 -14.52,5.04 -22.31,-65.81 c -2.52,-7.32 -2.03,-14.8 1.47,-20.6 3.04,-4.74 6.78,-7.52 15.15,-10.41 l 23.05,-8.07 c 8.34,-2.9 13.11,-3.13 18.42,-1.34 6.28,2.58 11.14,8.01 13.63,15.35 l 22.35,65.81"/><path id="path46" style="fill:#231f20;fill-opacity:1;fill-rule:nonzero;stroke:none" d="m 1743.59,2354.64 -13.41,7.5 -14.83,-27.18 -31.09,17.51 c -14.02,7.89 -25.8,4.83 -33.04,-8.51 l -21.66,-39.55 c -3.68,-6.8 -4.58,-12 -2.98,-17.64 1.73,-6.13 6.34,-12.28 11.25,-15.05 l 26.32,-14.82 c 11.16,-6.26 25.56,-0.96 32.5,11.74 l 46.94,86 z m -100.18,-57.03 20.03,36.73 c 3.64,6.67 7.57,7.8 13.8,4.28 l 22.07,-12.38 c 6.1,-3.44 7.21,-7.43 3.74,-13.81 l -19.55,-35.77 c -3.15,-5.75 -8.94,-7.84 -14.14,-4.91 l -23.51,13.23 c -4.01,2.28 -5.1,7.81 -2.44,12.63"/><path id="path48" style="fill:#231f20;fill-opacity:1;fill-rule:nonzero;stroke:none" d="m 1760.35,2190.34 9.03,12.57 -40.93,30.15 c -3.74,2.73 -5.34,5.23 -4.99,7.75 0.13,1.39 0.68,2.68 1.3,4.15 1.03,2.03 1.68,3.22 1.91,3.5 l 1.78,2.51 65,-12.9 6.37,8.92 c 8.86,12.31 6.64,24.8 -5.75,33.96 l -18.43,13.62 c -15.45,11.35 -27.97,9.72 -38.49,-4.94 l -24.14,-33.83 c -8.68,-12 -6.36,-25.86 5.87,-34.91 l 41.47,-30.55 z m -11,89.85 c 4.79,6.73 9.13,7.79 15.1,3.39 l 20.21,-14.88 c 5.79,-4.28 6.41,-7.29 2.97,-12.01 l -0.9,-1.3 -48.27,9.57 10.89,15.23"/><path id="path50" style="fill:#c4161d;fill-opacity:1;fill-rule:nonzero;stroke:none" d="m 376.863,699.328 424.285,0 0,45.992 -424.285,0 0,18.45 c 0,63.812 48.004,109.8 106.582,109.8 l 317.703,0 0,46.102 -317.703,0 c -84.867,0 -152.64,-64.481 -152.64,-155.902 l 0,-175.692 46.058,0 0,111.25"/><path id="path52" style="fill:#c4161d;fill-opacity:1;fill-rule:nonzero;stroke:none" d="m 900.344,876.93 0,140.11 -46.063,0 0,-428.938 46.063,0 0,198.007 c 8.508,49.36 48,85.532 103.916,85.532 l 168.42,0 c 59.17,0 106.57,-48.02 106.57,-106.582 l 0,-176.957 45.99,0 0,176.957 c 0,84.203 -67.7,152.66 -152.56,152.66 l -168.42,0 c -42.127,0 -76.963,-15.778 -103.916,-40.789"/><path id="path54" style="fill:#231f20;fill-opacity:1;fill-rule:nonzero;stroke:none" d="m 1869.44,874.461 c -26.61,26.68 -62.93,43.258 -103.35,43.258 l -173.08,0 c -40.37,0 -76.72,-16.578 -103.38,-43.258 -27.55,-27.742 -44.66,-66.512 -44.66,-109.371 l 0,-24.379 c 0,-42.891 17.11,-81.57 44.66,-109.352 26.66,-26.679 63.01,-43.25 103.38,-43.25 l 173.08,0 c 40.42,0 76.74,16.571 103.35,43.25 27.65,27.782 44.68,66.461 44.68,109.352 l 0,24.379 c 0,42.859 -17.03,81.629 -44.68,109.371 m 0,-133.75 c 0,-58.5 -45.9,-106.512 -103.35,-106.512 l -173.08,0 c -57.39,0 -103.38,48.012 -103.38,106.512 l 0,24.379 c 0,58.519 45.99,106.551 103.38,106.551 l 173.08,0 c 57.45,0 103.35,-48.032 103.35,-106.551 l 0,-24.379"/><path id="path56" style="fill:#231f20;fill-opacity:1;fill-rule:nonzero;stroke:none" d="m 2375.21,874.461 c -26.56,26.68 -62.97,43.258 -103.35,43.258 l -173.13,0 c -40.36,0 -76.7,-16.578 -103.35,-43.258 -27.56,-27.742 -44.65,-66.512 -44.65,-109.371 l 0,-24.379 c 0,-42.891 17.09,-81.57 44.65,-109.352 26.65,-26.679 62.99,-43.25 103.35,-43.25 l 173.13,0 c 40.38,0 76.79,16.571 103.35,43.25 27.65,27.782 44.64,66.461 44.64,109.352 l 0,24.379 c 0,42.859 -16.99,81.629 -44.64,109.371 m 0,-133.75 c 0,-58.5 -45.94,-106.512 -103.35,-106.512 l -173.13,0 c -57.38,0 -103.35,48.012 -103.35,106.512 l 0,24.379 c 0,58.519 45.97,106.551 103.35,106.551 l 173.13,0 c 57.41,0 103.35,-48.032 103.35,-106.551 l 0,-24.379"/><path id="path58" style="fill:#231f20;fill-opacity:1;fill-rule:nonzero;stroke:none" d="m 2108.78,959.25 44.4805,0 0,59.6914 -44.4805,0 0,-59.6914 z"/><path id="path60" style="fill:#231f20;fill-opacity:1;fill-rule:nonzero;stroke:none" d="m 2217.36,959.25 44.4297,0 0,59.6914 -44.4297,0 0,-59.6914 z"/><path id="path62" style="fill:#231f20;fill-opacity:1;fill-rule:nonzero;stroke:none" d="m 3320.57,603.57 c 0,-58.109 -20.49,-77.738 -81.19,-77.738 l -59.76,0 c -59.16,0 -81.15,21.219 -81.15,78.297 l 0,282.641 -29.55,0 0,-288.34 c 0,-32.789 2.06,-54.61 30.8,-80.789 19.86,-18.153 36.64,-21.352 64.53,-21.352 l 94.5,0 c 24.55,0 39.14,3.07 60.45,21.25 26.23,22.602 31.47,47.699 31.47,80.891 l 0,288.34 -30.1,0 0,-283.2"/><path id="path64" style="fill:#231f20;fill-opacity:1;fill-rule:nonzero;stroke:none" d="m 3612.62,886.77 -190.38,0 0,-390.481 29.51,0 0,150.871 158.61,0 c 60.94,0 95.89,34.75 95.89,95.328 l 0,66.063 c 0,18.258 -8.91,38.469 -23.14,52.66 -17.13,17.668 -38.88,25.559 -70.49,25.559 m 0.57,-210.059 -161.44,0 0,179.949 161.44,0 c 31.59,0 63.54,-18.301 63.54,-53.238 l 0,-60.363 c 0,-18.457 -5.09,-35.278 -14.31,-47.43 -11.82,-15.738 -27.6,-18.918 -49.23,-18.918"/><path id="path66" style="fill:#231f20;fill-opacity:1;fill-rule:nonzero;stroke:none" d="m 3953.57,886.77 -190.4,0 0,-390.481 29.54,0 0,150.871 158.59,0 c 60.94,0 95.91,34.75 95.91,95.328 l 0,66.063 c 0,18.238 -8.9,38.437 -23.14,52.66 -17.16,17.668 -38.88,25.559 -70.5,25.559 m 0.59,-210.059 -161.45,0 0,179.949 161.45,0 c 31.58,0 63.5,-18.301 63.5,-53.238 l 0,-60.363 c 0,-18.438 -5.05,-35.278 -14.29,-47.43 -11.83,-15.738 -27.61,-18.918 -49.21,-18.918"/><path id="path68" style="fill:#231f20;fill-opacity:1;fill-rule:nonzero;stroke:none" d="m 4104.14,794.84 0,-210.07 c 0,-52.942 36.24,-88.489 90.21,-88.489 l 165.34,0 0,29.539 -162.5,0 c -38.57,0 -63.51,24.239 -63.51,61.789 l 0,86.871 226.01,0 0,30.122 -226.56,0 0,90.238 c 0,20.121 2.75,33.301 17.49,45.512 12.02,10.5 28.54,16.296 46.57,16.296 l 162.5,0 0,30.122 -161.37,0 c -57.2,0 -94.18,-36.079 -94.18,-91.93"/><path id="path70" style="fill:#231f20;fill-opacity:1;fill-rule:nonzero;stroke:none" d="m 4618.54,657.961 c 54.92,0 89.05,33.277 89.05,86.801 l 0,51.238 c 0,57.719 -35.79,90.77 -98.17,90.77 l -183.56,0 0,-390.481 29.54,0 0,158.34 c 1.86,-1.59 3.97,-3.098 6.19,-4.707 l 204.11,-153.633 50.33,0 -215.15,161.672 117.66,0 z m -148.02,28.961 c -3.68,0 -10.09,0 -15.12,-2.742 l 0,172.48 154.59,0 c 45.16,0 68.08,-20.051 68.08,-59.539 l 0,-54.062 c 0,-35.309 -22.13,-55.547 -60.68,-55.547 -24.47,0 -48.96,-0.172 -73.47,-0.301 -24.47,-0.152 -48.92,-0.289 -73.4,-0.289"/><path id="path72" style="fill:#231f20;fill-opacity:1;fill-rule:nonzero;stroke:none" d="m 5010.14,891.32 c -9.69,0 -17.35,-6.05 -21.5,-17.05 l -151.53,-378.008 34.37,0 43.84,111.629 189.63,0 43.25,-111.629 34.99,0 -151.48,377.84 c -1.5,4.257 -6.11,17.218 -21.57,17.218 M 4927.46,638 5010.14,851.629 5092.25,638 l -164.79,0"/><path id="path74" style="fill:#231f20;fill-opacity:1;fill-rule:nonzero;stroke:none" d="m 5472.38,603.57 c 0,-58.109 -20.49,-77.738 -81.15,-77.738 l -59.77,0 c -59.17,0 -81.19,21.219 -81.19,78.297 l 0,282.641 -29.53,0 0,-288.34 c 0,-32.789 2.05,-54.61 30.8,-80.789 19.86,-18.153 36.63,-21.352 64.53,-21.352 l 94.51,0 c 24.54,0 39.12,3.07 60.46,21.25 26.21,22.602 31.45,47.699 31.45,80.891 l 0,288.34 -30.11,0 0,-283.2"/><path id="path76" style="fill:#231f20;fill-opacity:1;fill-rule:nonzero;stroke:none" d="m 5591.85,863.129 c -19.41,-18.32 -27.29,-38.207 -27.29,-68.82 l 0,-31.34 c 0,-53.34 37.44,-83.938 102.7,-83.938 l 58.07,0 c 46.69,0 67.52,-18.371 67.52,-59.519 l 0,-37.012 c 0,-16.129 -2.64,-29.391 -15.37,-41.59 -15.04,-13.98 -31.79,-15.078 -52.15,-15.078 l -160.21,0 0,-29.543 159.66,0 c 28.82,0 46.25,0.941 69.54,20.672 19.66,16.828 28.05,36.801 28.05,66.711 l 0,38.098 c 0,55.91 -35.36,87.96 -97.04,87.96 l -73.07,0 c -35.35,0 -58.2,22.25 -58.2,56.68 l 0,29.02 c 0,41.191 22.45,61.218 68.65,61.218 l 160.81,0 0,30.122 -160.24,0 c -28.9,0 -48.14,-1.59 -71.43,-23.641"/><path id="path78" style="fill:#231f20;fill-opacity:1;fill-rule:nonzero;stroke:none" d="m 5867.77,856.648 112.13,0 0,-360.367 29.54,0 0,360.367 112.15,0 0,30.122 -253.82,0 0,-30.122"/><path id="path80" style="fill:#231f20;fill-opacity:1;fill-rule:nonzero;stroke:none" d="m 6365.75,657.961 c 54.95,0 89.1,33.277 89.1,86.801 l 0,51.238 c 0,57.719 -35.81,90.77 -98.17,90.77 l -183.6,0 0,-390.481 29.57,0 0,158.391 c 1.84,-1.641 3.96,-3.149 6.22,-4.758 l 204.09,-153.633 50.34,0 -215.17,161.672 117.62,0 z m -147.99,28.961 c -3.68,0 -10.11,0 -15.11,-2.774 l 0,172.512 154.62,0 c 45.14,0 68.04,-20.051 68.04,-59.539 l 0,-54.062 c 0,-35.309 -22.13,-55.547 -60.66,-55.547 -24.49,0 -48.98,-0.172 -73.49,-0.301 -24.45,-0.152 -48.91,-0.289 -73.4,-0.289"/><path id="path82" style="fill:#231f20;fill-opacity:1;fill-rule:nonzero;stroke:none" d="m 6519.07,496.289 29.5391,0 0,390.48 -29.5391,0 0,-390.48 z"/><path id="path84" style="fill:#231f20;fill-opacity:1;fill-rule:nonzero;stroke:none" d="m 6791.35,874.102 c -1.52,4.277 -6.17,17.218 -21.6,17.218 -9.61,0 -17.27,-6.058 -21.5,-17.05 l -151.56,-378.008 34.37,0 43.84,111.629 189.63,0 43.25,-111.629 35,0 -151.43,377.84 z M 6687.07,638 6769.75,851.629 6851.88,638 l -164.81,0"/><path id="path86" style="fill:#c4161d;fill-opacity:1;fill-rule:nonzero;stroke:none" d="m 3198.3,1286.54 -50,0 c -51.08,0 -78.06,-25.7 -78.06,-74.3 l 0,-144.12 c 0,-47.51 26.98,-72.64 78.06,-72.64 l 50,0 c 51.08,0 78.06,25.26 78.06,73.06 l 0,143.7 c 0,48.6 -26.98,74.3 -78.06,74.3 m 0.85,-266.41 -51.29,0 c -16.42,0 -28.89,0.82 -39.88,11.43 -9.21,9.22 -13.14,20.55 -13.14,37.83 l 0,141.6 c 0,17.92 4.04,29.96 13.12,39.03 9.71,9.68 19.93,11.47 36.54,11.47 l 54.65,0 c 17.15,0 29.19,-0.81 39.41,-11.39 9.24,-9.59 13.2,-21.3 13.2,-39.11 l 0,-142.87 c 0,-16.59 -4.15,-28.32 -13.01,-36.85 -11.07,-10.34 -23.93,-11.14 -39.6,-11.14"/><path id="path88" style="fill:#c4161d;fill-opacity:1;fill-rule:nonzero;stroke:none" d="m 3324.06,1224.43 0,-228.95 24.62,0 0,131.54 167.66,0 0,25.04 -167.66,0 0,69.85 c 0,29.19 25.17,39.58 46.75,39.58 l 121.76,0 0,25.04 -123.46,0 c -33.77,0 -69.67,-21.77 -69.67,-62.1"/><path id="path90" style="fill:#c4161d;fill-opacity:1;fill-rule:nonzero;stroke:none" d="m 3718.1,1289.87 c -7.76,0 -13.87,-4.79 -17.18,-13.45 l -112.63,-280.94 28.43,0 32.34,82.41 138.05,0 31.92,-82.41 28.88,0 -112.55,280.77 c -3.26,9.04 -9.06,13.62 -17.26,13.62 m -58.98,-186.93 58.95,152.35 58.58,-152.35 -117.53,0"/><path id="path92" style="fill:#c4161d;fill-opacity:1;fill-rule:nonzero;stroke:none" d="m 4020.84,1286.54 -141.96,0 0,-291.06 24.62,0 0,111.37 115.65,0 c 45.87,0 72.18,26.14 72.18,71.78 l 0,48.74 c 0,13.81 -6.72,29.1 -17.47,39.86 -12.94,13.34 -29.28,19.31 -53.02,19.31 m 0.42,-155.08 -117.76,0 0,130.03 117.76,0 c 22.58,0 45.48,-13.04 45.48,-37.92 l 0,-44.54 c 0,-13.3 -3.65,-25.45 -10.3,-34.15 -8.39,-11.22 -19.27,-13.42 -35.18,-13.42"/><path id="path94" style="fill:#c4161d;fill-opacity:1;fill-rule:nonzero;stroke:none" d="m 4270.72,1286.54 -141.93,0 0,-291.06 24.61,0 0,111.37 115.65,0 c 45.19,0 72.19,26.84 72.19,71.78 l 0,48.74 c 0,13.81 -6.73,29.1 -17.47,39.86 -12.95,13.34 -29.31,19.31 -53.05,19.31 m 0.42,-155.08 -117.74,0 0,130.03 117.74,0 c 22.58,0 45.48,-13.04 45.48,-37.92 l 0,-44.54 c 0,-13.3 -3.66,-25.45 -10.3,-34.15 -8.39,-11.22 -19.27,-13.42 -35.18,-13.42"/><path id="path96" style="fill:#c4161d;fill-opacity:1;fill-rule:nonzero;stroke:none" d="m 4403.28,1066 0,220.54 -24.62,0 0,-220.54 c 0,-22.37 1.99,-42.17 26.42,-58.31 15.67,-10.139 29.81,-12.21 46.22,-12.21 l 120.49,0 0,24.62 -120.97,0 c -31.98,0 -47.54,15.03 -47.54,45.9"/><path id="path98" style="fill:#c4161d;fill-opacity:1;fill-rule:nonzero;stroke:none" d="m 4603.74,995.48 24.6211,0 0,291.031 -24.6211,0 0,-291.031 z"/><path id="path100" style="fill:#c4161d;fill-opacity:1;fill-rule:nonzero;stroke:none" d="m 4675.93,1217.28 0,-155.04 c 0,-39.94 27.31,-66.76 67.98,-66.76 l 123.47,0 0,24.62 -121.38,0 c -28.03,0 -45.45,16.97 -45.45,44.26 l 0,62.66 166.83,0 0,25.04 -167.26,0 0,65.22 c 0,14.39 1.95,23.82 12.5,32.53 8.54,7.53 20.43,11.68 33.38,11.68 l 121.38,0 0,25.05 -120.54,0 c -43.07,0 -70.91,-27.2 -70.91,-69.26"/><path id="path102" style="fill:#c4161d;fill-opacity:1;fill-rule:nonzero;stroke:none" d="m 5056.17,1286.53 -144.48,0 0,-291.018 143.63,0 c 42.09,0 69.25,28.668 69.25,73.038 l 0,148.31 c 0,19.98 -2.83,33.12 -18.35,49.56 -14.61,15.03 -27.24,20.11 -50.05,20.11 m -119.86,-25.04 119.01,0 c 15.8,0 23.61,-3.34 33.38,-14.15 8.5,-9.62 11.25,-17.05 11.25,-30.48 l 0,-148.75 c 0,-29.13 -17.68,-48.01 -45.05,-48.01 l -118.59,0 0,241.39"/><path id="path104" style="fill:#c4161d;fill-opacity:1;fill-rule:nonzero;stroke:none" d="m 5258.29,1268.69 c -14.61,-13.79 -20.58,-28.81 -20.58,-51.84 l 0,-23.11 c 0,-40.26 28.12,-63.36 77.23,-63.36 l 42.85,0 c 33.95,0 48.42,-12.74 48.42,-42.51 l 0,-27.33 c 0,-11.87 -1.83,-20.98 -10.91,-29.69 -10.72,-9.96 -22.3,-10.72 -37.51,-10.72 l -119.66,0 0,-24.65 119.24,0 c 21.6,0 34.7,0.731 52.24,15.59 14.68,12.59 21.21,28.12 21.21,50.32 l 0,28.18 c 0,42.14 -26.59,66.28 -73.03,66.28 l -53.93,0 c -25.27,0 -41.55,15.85 -41.55,40.42 l 0,21.43 c 0,29.46 16.11,43.77 49.24,43.77 l 120.09,0 0,25.06 -119.67,0 c -21.06,0 -36.16,-1.26 -53.68,-17.84"/><path id="path106" style="fill:#c4161d;fill-opacity:1;fill-rule:nonzero;stroke:none" d="m 5494.86,1271.85 c -14.72,-12.16 -22.13,-29.38 -22.13,-51.21 l 0,-155.46 c 0,-22.39 3.28,-37.53 20.65,-53.57 15.14,-13.712 26.39,-16.13 44.36,-16.13 l 126.85,0 0,24.65 -117.13,0 c -16.66,0 -24.52,0.42 -36.37,10.43 -11.39,9.9 -13.74,21.33 -13.74,35.44 l 0,155.49 c 0,13.06 4.23,22.85 13.36,30.87 10.22,9.14 17.53,9.14 32.11,9.14 l 122.61,0 0,25.04 -123.03,0 c -18.61,0 -33.06,-2.46 -47.54,-14.69"/><path id="path108" style="fill:#c4161d;fill-opacity:1;fill-rule:nonzero;stroke:none" d="m 5705.45,995.48 24.5898,0 0,291.031 -24.5898,0 0,-291.031 z"/><path id="path110" style="fill:#c4161d;fill-opacity:1;fill-rule:nonzero;stroke:none" d="m 5777.67,1217.28 0,-155.04 c 0,-39.94 27.32,-66.76 67.97,-66.76 l 123.49,0 0,24.62 -121.4,0 c -28.03,0 -45.44,16.97 -45.44,44.26 l 0,62.66 166.84,0 0,25.04 -167.27,0 0,65.22 c 0,14.39 1.96,23.82 12.5,32.53 8.55,7.53 20.43,11.68 33.37,11.68 l 121.4,0 0,25.05 -120.56,0 c -43.06,0 -70.9,-27.2 -70.9,-69.26"/><path id="path112" style="fill:#c4161d;fill-opacity:1;fill-rule:nonzero;stroke:none" d="m 6200.4,1041.38 -155.01,233.34 c -3.42,5.37 -9.1,14.31 -18.19,14.31 -7.22,0 -13.79,-6.55 -13.79,-13.76 l 0,-279.79 24.62,0 0,245.57 155.58,-234.19 c 3.29,-5.2 8.71,-13.911 18.07,-13.911 8.86,0 13.36,6.621 13.36,19.661 l 0,273.91 -24.64,0 0,-245.14"/><path id="path114" style="fill:#c4161d;fill-opacity:1;fill-rule:nonzero;stroke:none" d="m 6295.32,1271.85 c -14.69,-12.16 -22.13,-29.38 -22.13,-51.21 l 0,-155.46 c 0,-22.36 3.27,-37.5 20.67,-53.57 15.11,-13.712 26.36,-16.13 44.37,-16.13 l 126.82,0 0,24.65 -117.11,0 c -16.65,0 -24.51,0.42 -36.39,10.43 -11.39,9.92 -13.74,21.33 -13.74,35.44 l 0,155.49 c 0,13.06 4.26,22.85 13.37,30.87 10.21,9.14 17.54,9.14 32.16,9.14 l 122.55,0 0,25.04 -123,0 c -18.61,0 -33.07,-2.46 -47.57,-14.69"/><path id="path116" style="fill:#c4161d;fill-opacity:1;fill-rule:nonzero;stroke:none" d="m 6498.82,1217.28 0,-155.04 c 0,-39.94 27.32,-66.76 67.98,-66.76 l 123.48,0 0,24.62 -121.36,0 c -28.04,0 -45.48,16.97 -45.48,44.26 l 0,62.66 166.84,0 0,25.04 -167.23,0 0,65.22 c 0,14.43 1.95,23.85 12.46,32.53 8.57,7.53 20.43,11.68 33.41,11.68 l 121.36,0 0,25.05 -120.54,0 c -43.07,0 -70.92,-27.2 -70.92,-69.26"/><path id="path118" style="fill:#c4161d;fill-opacity:1;fill-rule:nonzero;stroke:none" d="m 6802.72,1261.49 120.13,0 0,25.04 -119.68,0 c -21.06,0 -36.18,-1.24 -53.68,-17.83 -14.66,-13.83 -20.64,-28.84 -20.64,-51.84 l 0,-23.11 c 0,-40.28 28.17,-63.37 77.26,-63.37 l 42.84,0 c 33.93,0 48.4,-12.71 48.4,-42.51 l 0,-27.33 c 0,-11.87 -1.81,-20.98 -10.88,-29.66 -10.71,-9.99 -22.28,-10.78 -37.52,-10.78 l -119.67,0 0,-24.588 119.24,0 c 21.66,0 34.76,0.699 52.26,15.568 14.66,12.55 21.19,28.06 21.19,50.31 l 0,28.17 c 0,42.12 -26.62,66.3 -73.02,66.3 l -53.92,0 c -25.26,0 -41.53,15.85 -41.53,40.42 l 0,21.44 c 0,29.45 16.09,43.77 49.22,43.77"/><path id="path120" style="fill:#231f20;fill-opacity:1;fill-rule:nonzero;stroke:none" d="m 3424.7,1544.86 c 0,-83.26 -29.3,-111.37 -116.15,-111.37 l -83.99,0 c -84.67,0 -116.17,30.41 -116.17,112.19 l 0,394.82 -37.13,0 0,-402.86 c 0,-45.44 2.84,-75.7 42.52,-111.91 27.41,-24.99 50.61,-29.38 89.2,-29.38 l 132.75,0 c 34.65,0 53.93,4.06 83.49,29.27 36.34,31.4 43.44,64.87 43.44,112.02 l 0,402.86 -37.96,0 0,-395.64"/><path id="path122" style="fill:#231f20;fill-opacity:1;fill-rule:nonzero;stroke:none" d="m 3919.27,1462.71 -304.01,457.59 c -5.92,9.36 -15.83,25 -30.48,25 -11,0 -21.38,-10.42 -21.38,-21.39 l 0,-527.56 37.14,0 0,478.55 305.42,-459.65 c 6.03,-9.46 15.11,-23.69 29.88,-23.69 20.58,0 20.58,24.5 20.58,32.56 l 0,516.36 -37.15,0 0,-477.77"/><path id="path124" style="fill:#231f20;fill-opacity:1;fill-rule:nonzero;stroke:none" d="m 4057.73,1396.35 37.1406,0 0,544.141 -37.1406,0 0,-544.141 z"/><path id="path126" style="fill:#231f20;fill-opacity:1;fill-rule:nonzero;stroke:none" d="m 4396.45,1449.94 -193.84,490.56 -40.39,0 206.83,-519.13 1.33,-3.55 c 3.81,-10.46 9.55,-26.26 26.07,-26.26 17.63,0 23.76,17.21 28.22,29.75 l 206.07,519.19 -40.4,0 -193.89,-490.56"/><path id="path128" style="fill:#231f20;fill-opacity:1;fill-rule:nonzero;stroke:none" d="m 4682.94,1813.56 0,-295.1 c 0,-73.05 50.03,-122.11 124.51,-122.11 l 230.11,0 0,37.14 -226.09,0 c -55.5,0 -91.39,34.94 -91.39,88.98 l 0,124.17 317.48,0 0,37.94 -318.28,0 0,128.98 c 0,28.89 4.02,47.87 25.36,65.51 17.29,15.13 41.02,23.47 66.83,23.47 l 226.09,0 0,37.96 -224.49,0 c -79.07,0 -130.13,-49.83 -130.13,-126.94"/><path id="path130" style="fill:#231f20;fill-opacity:1;fill-rule:nonzero;stroke:none" d="m 5399.28,1623.47 c 75.81,0 122.9,45.86 122.9,119.73 l 0,71.95 c 0,80.83 -48.19,125.33 -135.72,125.33 l -255.68,0 0,-544.13 37.15,0 0,225.36 c 2.89,-3.32 6.45,-5.89 10.01,-8.4 l 288.31,-216.96 63.47,0 -302.26,227.12 171.82,0 z m -231.35,279.08 219.33,0 c 64.91,0 97.81,-28.87 97.81,-85.81 l 0,-75.95 c 0,-50.21 -32.67,-80.18 -87.4,-80.18 -34.39,0 -68.8,-0.23 -103.2,-0.42 -34.37,-0.18 -68.76,-0.4 -103.14,-0.4 -6.22,0 -16.75,0 -23.4,-5.88 l 0,248.64"/><path id="path132" style="fill:#231f20;fill-opacity:1;fill-rule:nonzero;stroke:none" d="m 5640.56,1907.84 c -31.26,-29.49 -37.68,-59.33 -37.68,-95.09 l 0,-43.96 c 0,-74.65 50.48,-115.74 142.12,-115.74 l 81.56,0 c 67.1,0 97.01,-26.46 97.01,-85.79 l 0,-51.97 c 0,-23.22 -3.8,-42.31 -22.32,-60.05 -21.62,-20.16 -45.58,-21.75 -74.69,-21.75 l -222.88,0 0,-37.14 222.05,0 c 41.17,0 64.11,1.24 96.3,28.47 27.11,23.23 38.65,50.77 38.65,92.05 l 0,53.59 c 0,77.1 -48.85,121.32 -134.12,121.32 l -102.62,0 c -50.99,0 -83.92,32.09 -83.92,81.79 l 0,40.78 c 0,59.34 32.27,88.2 98.6,88.2 l 223.68,0 0,37.94 -222.89,0 c -40.06,0 -66.72,-2.18 -98.85,-32.65"/><path id="path134" style="fill:#231f20;fill-opacity:1;fill-rule:nonzero;stroke:none" d="m 6050.33,1396.35 37.1367,0 0,544.141 -37.1367,0 0,-544.141 z"/><path id="path136" style="fill:#231f20;fill-opacity:1;fill-rule:nonzero;stroke:none" d="m 6159.55,1902.54 157.47,0 0,-506.19 37.17,0 0,506.19 157.57,0 0,37.95 -352.21,0 0,-37.95"/><path id="path138" style="fill:#231f20;fill-opacity:1;fill-rule:nonzero;stroke:none" d="m 6913.21,1940.49 -157.65,-268.26 -157.64,268.26 -43.66,0 182.34,-309.93 0,-234.22 37.93,0 0,234.22 182.41,309.93 -43.73,0"/></g></g></g></g></svg>